<svg width="138" height="87" viewBox="0 0 138 87" fill="none" xmlns="http://www.w3.org/2000/svg">
<mask id="path-1-inside-1_511_2249" fill="white">
<path d="M5.99332 78.6743V78.7044C7.53645 78.8225 8.78228 79.5054 9.73145 80.7516L11.8686 83.5703C12.4023 84.2823 12.8962 84.7867 13.3515 85.0837C13.8061 85.3803 14.3206 85.5288 14.8947 85.5288V85.8251H13.797C12.1547 85.8251 10.8494 85.153 9.88027 83.8077L7.74415 80.8108C7.46679 80.4353 7.20971 80.1187 6.97258 79.8613C6.73479 79.6045 6.49276 79.4017 6.24516 79.2532C5.9979 79.1044 5.731 78.9965 5.44416 78.9268C5.15731 78.8575 4.82599 78.8133 4.45018 78.793V78.4964C5.43925 78.4768 6.32432 78.3139 7.10602 78.0067C7.88708 77.7006 8.55496 77.2751 9.10903 76.7312C9.66244 76.1872 10.0876 75.5292 10.3846 74.7576C10.6813 73.9863 10.8298 73.1258 10.8298 72.1766C10.8298 71.2075 10.6813 70.3323 10.3846 69.5506C10.0876 68.7692 9.66244 68.1019 9.10903 67.5479C8.55496 66.9945 7.88217 66.5686 7.09098 66.272C6.29979 65.9753 5.4193 65.8271 4.45018 65.8271H1.78027V85.8251H0V65.3522H4.45018C5.71596 65.3522 6.8581 65.5109 7.87727 65.8271C8.89578 66.1434 9.76612 66.5984 10.4883 67.1917C11.2102 67.785 11.7642 68.5026 12.1498 69.3429C12.5358 70.1841 12.7288 71.1284 12.7288 72.1766C12.7288 74.0357 12.14 75.5292 10.9632 76.6569C9.78607 77.7843 8.12977 78.4571 5.99332 78.6743Z"/>
<path d="M30.0271 85.8251H17.5652V65.3519H29.7304L29.285 66.5389L21.1258 65.8268H19.3455V74.6981H27.9502L27.5047 75.8853L19.9388 75.173H19.3455V85.3502H21.4224L29.5823 84.6382L30.0271 85.8251Z"/>
<path d="M43.3492 85.4398C44.16 85.4398 44.9561 85.3358 45.7378 85.1281C46.5188 84.9201 47.2554 84.6287 47.9485 84.2529C48.6403 83.8771 49.2735 83.4274 49.8468 82.9027C50.4205 82.3788 50.8954 81.8002 51.2716 81.1666L51.6278 81.3746C50.7375 82.9377 49.5106 84.1394 47.9485 84.9797C46.3851 85.8209 44.5956 86.2409 42.5776 86.2409C41.0148 86.2409 39.5908 85.9834 38.305 85.4693C37.019 84.9551 35.9167 84.2333 34.997 83.3034C34.0773 82.3738 33.3649 81.2562 32.8605 79.9502C32.3559 78.6449 32.104 77.1914 32.104 75.5887C32.104 73.9863 32.351 72.5325 32.8455 71.2271C33.34 69.9215 34.0367 68.8042 34.9375 67.874C35.8372 66.9448 36.9202 66.2229 38.1863 65.7084C39.4524 65.1939 40.8569 64.9368 42.4 64.9368C43.5467 64.9368 44.6251 65.0906 45.6338 65.397C46.6425 65.7038 47.5279 66.1189 48.2896 66.6429C49.0507 67.1672 49.649 67.7808 50.0846 68.4827C50.5193 69.1849 50.7375 69.9414 50.7375 70.7522C50.7375 71.267 50.5935 71.6919 50.307 72.0282C50.0202 72.3647 49.6692 72.5325 49.2538 72.5325C49.2538 71.4646 49.0805 70.4955 48.7348 69.6248C48.3884 68.7545 47.8988 68.0077 47.2659 67.385C46.6327 66.7616 45.8758 66.2769 44.996 65.9308C44.1158 65.5851 43.1415 65.4118 42.0732 65.4118C40.8863 65.4118 39.7886 65.6489 38.7799 66.1238C37.7712 66.5987 36.9055 67.261 36.1836 68.1118C35.4611 68.9622 34.8979 69.9764 34.492 71.1532C34.0864 72.3297 33.884 73.621 33.884 75.0251C33.884 76.5287 34.1165 77.9181 34.5816 79.194C35.0461 80.4699 35.6989 81.5725 36.5395 82.5021C37.3804 83.4323 38.3793 84.1541 39.5361 84.6683C40.6936 85.1831 41.9643 85.4398 43.3492 85.4398Z"/>
<path d="M64.9201 85.7659C66.1862 85.7659 67.3381 85.5435 68.3769 85.0984C69.4157 84.6536 70.3008 84.0256 71.0324 83.2141C71.7641 82.4033 72.3329 81.424 72.7385 80.277C73.1437 79.1296 73.3468 77.8537 73.3468 76.4492C73.3468 74.9061 73.1143 73.4627 72.6495 72.1171C72.1844 70.7725 71.5466 69.6003 70.7358 68.6014C69.9243 67.6025 68.9702 66.8211 67.8726 66.2572C66.7746 65.6934 65.5925 65.4118 64.3268 65.4118C63.0607 65.4118 61.9087 65.6342 60.8699 66.079C59.8318 66.5241 58.9464 67.1524 58.2144 67.9633C57.4824 68.7747 56.9136 69.754 56.5084 70.9007C56.1028 72.0478 55.9 73.3237 55.9 74.7285C55.9 76.2713 56.1322 77.7153 56.5973 79.0603C57.0618 80.4055 57.6999 81.5778 58.5111 82.5763C59.3219 83.5755 60.2766 84.3566 61.3749 84.9201C62.4723 85.484 63.654 85.7659 64.9201 85.7659ZM54.1495 75.5887C54.1495 73.9863 54.4017 72.5325 54.9064 71.2271C55.4107 69.9215 56.1231 68.8042 57.0428 67.874C57.9625 66.9448 59.0648 66.2229 60.3508 65.7084C61.6366 65.1939 63.0607 64.9368 64.6234 64.9368C66.1862 64.9368 67.6103 65.1939 68.896 65.7084C70.1817 66.2229 71.285 66.9448 72.2047 67.874C73.1244 68.8042 73.8365 69.9215 74.3408 71.2271C74.8452 72.5325 75.0977 73.9863 75.0977 75.5887C75.0977 77.1914 74.8452 78.6449 74.3408 79.9502C73.8365 81.2562 73.1244 82.3738 72.2047 83.3034C71.285 84.2333 70.1817 84.9551 68.896 85.4693C67.6103 85.9834 66.1862 86.2409 64.6234 86.2409C63.0607 86.2409 61.6366 85.9834 60.3508 85.4693C59.0648 84.9551 57.9625 84.2333 57.0428 83.3034C56.1231 82.3738 55.4107 81.2562 54.9064 79.9502C54.4017 78.6449 54.1495 77.1914 54.1495 75.5887Z"/>
<path d="M91.4167 65.3522L90.9713 66.5392L82.812 65.8271H81.0318V74.8472H89.6365L89.191 76.0338L81.6251 75.3218H81.0318V85.8255H79.2515V65.3522H91.4167Z"/>
<path d="M106.549 65.3522L106.104 66.5392L97.9445 65.8271H96.1642V74.8472H104.769L104.323 76.0338L96.7575 75.3218H96.1642V85.8255H94.3839V65.3522H106.549Z"/>
<path d="M121.978 85.8251H109.516V65.3519H121.681L121.235 66.5389L113.076 65.8268H111.296V74.6981H119.901L119.455 75.8853L111.889 75.173H111.296V85.3502H113.373L121.533 84.6382L121.978 85.8251Z"/>
<path d="M138 85.8251H125.538V65.3519H137.703L137.258 66.5389L129.099 65.8268H127.318V74.6981H135.923L135.478 75.8853L127.912 75.173H127.318V85.3502H129.395L137.555 84.6382L138 85.8251Z"/>
<path d="M64.1027 1.78068C63.3125 2.15518 62.5589 2.57548 61.842 3.03665C60.3531 2.41096 58.9464 2.26018 58.0786 2.16892C55.2288 1.86278 52.9544 2.60262 51.7854 3.08244C52.0595 22.5061 52.1553 36.6639 52.0912 38.8925C52.0778 39.3766 52.0228 40.5505 51.2235 41.4228C50.429 42.2814 49.3192 42.4092 49.1822 42.423C48.9948 42.4413 48.2504 42.4959 47.4284 42.1031C46.5699 41.6877 46.145 41.03 45.8984 40.6372C45.8209 40.5093 44.7932 38.8242 45.3777 38.1939C45.5559 38.0065 45.8209 37.961 46.0446 37.961C46.4603 39.025 47.3826 41.1075 48.3374 41.0208C48.9994 40.9616 49.4059 39.879 49.5475 39.4908C50.4928 36.9517 50.3149 24.1958 49.9904 13.646C49.8442 8.90993 49.6663 4.62133 49.5475 1.89483C54.681 -0.644575 60.2344 -0.580469 64.1027 1.78068Z"/>
<path d="M76.8858 36.0519C76.6025 37.3946 75.7256 38.6005 74.5338 39.5411C72.5013 39.4133 70.6059 38.9612 68.8796 38.1939C66.8063 37.2712 64.9884 35.9561 63.4816 34.2936C61.9653 32.613 60.7685 30.5943 59.9282 28.2787C59.2613 26.4428 58.8505 24.4561 58.7089 22.3416C59.7274 21.8438 60.9834 21.1406 62.3398 20.1813C63.9336 19.0486 64.8334 18.4141 65.6553 17.2494C67.5049 14.6279 67.3725 11.7231 67.3133 10.9378C67.2537 10.2114 67.0392 7.84107 65.3312 5.68565C65.9019 5.27909 66.5002 4.91833 67.1396 4.60303H67.1442C68.9575 7.16533 69.2087 9.95593 69.2495 10.4946C69.2953 11.1203 69.6515 17.2127 64.8425 20.5649C64.468 20.8253 64.089 21.049 63.7145 21.2456C63.0018 21.6109 62.3535 21.8346 61.8603 21.9717C62.1798 22.022 63.2896 22.2778 64.5318 23.1547C67.1213 24.986 66.3543 27.5342 68.4822 30.6764C70.4692 33.6041 73.9264 35.5083 75.027 34.7547C76.0089 34.0836 75.0224 31.3571 75.3649 31.2701C75.7119 31.1834 77.3927 33.6587 76.8858 36.0519Z"/>
<path d="M91.1946 32.5627C90.4639 33.7958 89.5367 34.9193 88.4223 35.9378C87.3034 36.9609 86.0749 37.8377 84.7277 38.5684C83.3759 39.2991 81.9462 39.8653 80.4253 40.2718C78.9048 40.6738 77.3518 40.8792 75.7763 40.8792C75.4885 40.8792 75.2052 40.8746 74.9269 40.8609C74.1779 40.8338 73.4469 40.7651 72.7345 40.6509C71.191 40.4135 69.7339 39.9886 68.3547 39.3766C66.1031 38.3764 64.1576 36.97 62.5226 35.1613C60.8875 33.3529 59.6178 31.2063 58.7138 28.7219C58.7092 28.7081 58.7046 28.6944 58.7001 28.6806C57.9007 26.4748 57.4578 24.0908 57.3754 21.5331C57.3617 21.2273 57.3574 20.9165 57.3574 20.6061C57.3574 17.8751 57.7499 15.3631 58.5401 13.0749C59.3258 10.7825 60.4264 8.80955 61.8285 7.1516C62.3263 6.56712 62.8559 6.0281 63.4224 5.53945C63.7511 5.25163 64.0938 4.97754 64.45 4.72635C65.0391 4.29264 65.6556 3.90899 66.3088 3.5757C66.4959 3.47038 66.6879 3.37455 66.8841 3.28329C67.0987 3.18288 67.3136 3.08672 67.5281 3.00005C69.314 2.26478 71.2319 1.89944 73.2918 1.89944C75.3697 1.89944 77.2697 2.23731 78.9823 2.90879C80.6948 3.58486 82.1654 4.52552 83.3988 5.74028C84.6318 6.95078 85.5817 8.40299 86.2577 10.0972C86.9289 11.7918 87.2671 13.6781 87.2671 15.756C88.0753 15.756 88.7602 15.4315 89.3175 14.7741C89.8749 14.1209 90.1532 13.2944 90.1532 12.2942C90.1532 10.7138 89.7287 9.24325 88.8838 7.87313C88.0387 6.50759 86.8743 5.31573 85.39 4.29722C83.91 3.27413 82.1837 2.46593 80.2199 1.87196C78.2608 1.27375 76.16 0.976762 73.9267 0.976762C71.3098 0.976762 68.8937 1.35584 66.6833 2.11858C66.3588 2.22815 66.0439 2.34688 65.7286 2.47476C65.5915 2.52971 65.4548 2.58924 65.3223 2.64386C64.5688 2.97257 63.8561 3.33366 63.1758 3.73531C62.7555 3.98192 62.3492 4.24227 61.9518 4.52094C61.0337 5.16037 60.1843 5.88648 59.4033 6.69043C57.6541 8.5034 56.2977 10.6775 55.3341 13.2165C54.3706 15.756 53.8908 18.5874 53.8908 21.7068C53.8908 24.8261 54.3794 27.653 55.3616 30.1924C56.2202 32.4119 57.3846 34.3531 58.8597 36.0153C59.0746 36.2527 59.2937 36.4902 59.522 36.7188C60.7234 37.9336 62.0797 38.9613 63.6003 39.8152C63.6049 39.8152 63.6049 39.8198 63.6095 39.8198C64.3539 40.2352 65.1349 40.6051 65.9572 40.9342C66.5234 41.1579 67.1033 41.3587 67.7018 41.537C69.0674 41.9389 70.5058 42.2085 72.0176 42.3363C72.7528 42.4047 73.5018 42.4367 74.2737 42.4367C78.2012 42.4367 81.6859 41.6191 84.7277 39.9794C87.7646 38.3447 90.1532 36.0061 91.8887 32.9647L91.1946 32.5627Z"/>
<path d="M69.2642 23.5586C68.9852 23.2087 70.198 21.1752 71.1276 19.9127C73.598 16.5566 76.4641 15.3857 77.1068 15.1388C77.15 15.1221 77.307 15.0619 77.53 14.9863C78.02 14.8202 81.5347 13.6813 84.8451 15.1823C85.0433 15.2722 85.6752 15.5685 86.3418 16.2031C86.9639 16.7954 87.5349 17.3393 87.4427 18.0151C87.3148 18.9475 85.9944 19.6151 85.4495 19.8905C84.9622 20.1371 83.6254 20.7373 81.4317 20.4835C79.4317 20.2519 79.3407 19.6135 77.7417 19.6239C76.4448 19.6324 75.4256 20.0589 74.3999 20.4998C71.2293 21.8621 69.5661 23.9374 69.2642 23.5586Z"/>
<path d="M87.6902 19.6913C87.5188 19.4672 86.7511 20.368 85.1717 21.0159C83.9249 21.5271 82.9299 21.57 82.1476 21.5958C80.1903 21.6609 79.1882 21.1261 78.207 20.9453C74.8162 20.3202 70.1315 23.6377 70.0615 25.4376C69.9866 27.368 75.1684 28.9063 79.7161 27.4338C80.6097 27.1443 82.9083 26.2756 85.0781 23.9491C86.6887 22.2228 87.9335 20.0095 87.6902 19.6913Z"/>
</mask>
<path d="M5.99332 78.6743V78.7044C7.53645 78.8225 8.78228 79.5054 9.73145 80.7516L11.8686 83.5703C12.4023 84.2823 12.8962 84.7867 13.3515 85.0837C13.8061 85.3803 14.3206 85.5288 14.8947 85.5288V85.8251H13.797C12.1547 85.8251 10.8494 85.153 9.88027 83.8077L7.74415 80.8108C7.46679 80.4353 7.20971 80.1187 6.97258 79.8613C6.73479 79.6045 6.49276 79.4017 6.24516 79.2532C5.9979 79.1044 5.731 78.9965 5.44416 78.9268C5.15731 78.8575 4.82599 78.8133 4.45018 78.793V78.4964C5.43925 78.4768 6.32432 78.3139 7.10602 78.0067C7.88708 77.7006 8.55496 77.2751 9.10903 76.7312C9.66244 76.1872 10.0876 75.5292 10.3846 74.7576C10.6813 73.9863 10.8298 73.1258 10.8298 72.1766C10.8298 71.2075 10.6813 70.3323 10.3846 69.5506C10.0876 68.7692 9.66244 68.1019 9.10903 67.5479C8.55496 66.9945 7.88217 66.5686 7.09098 66.272C6.29979 65.9753 5.4193 65.8271 4.45018 65.8271H1.78027V85.8251H0V65.3522H4.45018C5.71596 65.3522 6.8581 65.5109 7.87727 65.8271C8.89578 66.1434 9.76612 66.5984 10.4883 67.1917C11.2102 67.785 11.7642 68.5026 12.1498 69.3429C12.5358 70.1841 12.7288 71.1284 12.7288 72.1766C12.7288 74.0357 12.14 75.5292 10.9632 76.6569C9.78607 77.7843 8.12977 78.4571 5.99332 78.6743Z" fill="#B34BFF"/>
<path d="M30.0271 85.8251H17.5652V65.3519H29.7304L29.285 66.5389L21.1258 65.8268H19.3455V74.6981H27.9502L27.5047 75.8853L19.9388 75.173H19.3455V85.3502H21.4224L29.5823 84.6382L30.0271 85.8251Z" fill="#B34BFF"/>
<path d="M43.3492 85.4398C44.16 85.4398 44.9561 85.3358 45.7378 85.1281C46.5188 84.9201 47.2554 84.6287 47.9485 84.2529C48.6403 83.8771 49.2735 83.4274 49.8468 82.9027C50.4205 82.3788 50.8954 81.8002 51.2716 81.1666L51.6278 81.3746C50.7375 82.9377 49.5106 84.1394 47.9485 84.9797C46.3851 85.8209 44.5956 86.2409 42.5776 86.2409C41.0148 86.2409 39.5908 85.9834 38.305 85.4693C37.019 84.9551 35.9167 84.2333 34.997 83.3034C34.0773 82.3738 33.3649 81.2562 32.8605 79.9502C32.3559 78.6449 32.104 77.1914 32.104 75.5887C32.104 73.9863 32.351 72.5325 32.8455 71.2271C33.34 69.9215 34.0367 68.8042 34.9375 67.874C35.8372 66.9448 36.9202 66.2229 38.1863 65.7084C39.4524 65.1939 40.8569 64.9368 42.4 64.9368C43.5467 64.9368 44.6251 65.0906 45.6338 65.397C46.6425 65.7038 47.5279 66.1189 48.2896 66.6429C49.0507 67.1672 49.649 67.7808 50.0846 68.4827C50.5193 69.1849 50.7375 69.9414 50.7375 70.7522C50.7375 71.267 50.5935 71.6919 50.307 72.0282C50.0202 72.3647 49.6692 72.5325 49.2538 72.5325C49.2538 71.4646 49.0805 70.4955 48.7348 69.6248C48.3884 68.7545 47.8988 68.0077 47.2659 67.385C46.6327 66.7616 45.8758 66.2769 44.996 65.9308C44.1158 65.5851 43.1415 65.4118 42.0732 65.4118C40.8863 65.4118 39.7886 65.6489 38.7799 66.1238C37.7712 66.5987 36.9055 67.261 36.1836 68.1118C35.4611 68.9622 34.8979 69.9764 34.492 71.1532C34.0864 72.3297 33.884 73.621 33.884 75.0251C33.884 76.5287 34.1165 77.9181 34.5816 79.194C35.0461 80.4699 35.6989 81.5725 36.5395 82.5021C37.3804 83.4323 38.3793 84.1541 39.5361 84.6683C40.6936 85.1831 41.9643 85.4398 43.3492 85.4398Z" fill="#B34BFF"/>
<path d="M64.9201 85.7659C66.1862 85.7659 67.3381 85.5435 68.3769 85.0984C69.4157 84.6536 70.3008 84.0256 71.0324 83.2141C71.7641 82.4033 72.3329 81.424 72.7385 80.277C73.1437 79.1296 73.3468 77.8537 73.3468 76.4492C73.3468 74.9061 73.1143 73.4627 72.6495 72.1171C72.1844 70.7725 71.5466 69.6003 70.7358 68.6014C69.9243 67.6025 68.9702 66.8211 67.8726 66.2572C66.7746 65.6934 65.5925 65.4118 64.3268 65.4118C63.0607 65.4118 61.9087 65.6342 60.8699 66.079C59.8318 66.5241 58.9464 67.1524 58.2144 67.9633C57.4824 68.7747 56.9136 69.754 56.5084 70.9007C56.1028 72.0478 55.9 73.3237 55.9 74.7285C55.9 76.2713 56.1322 77.7153 56.5973 79.0603C57.0618 80.4055 57.6999 81.5778 58.5111 82.5763C59.3219 83.5755 60.2766 84.3566 61.3749 84.9201C62.4723 85.484 63.654 85.7659 64.9201 85.7659ZM54.1495 75.5887C54.1495 73.9863 54.4017 72.5325 54.9064 71.2271C55.4107 69.9215 56.1231 68.8042 57.0428 67.874C57.9625 66.9448 59.0648 66.2229 60.3508 65.7084C61.6366 65.1939 63.0607 64.9368 64.6234 64.9368C66.1862 64.9368 67.6103 65.1939 68.896 65.7084C70.1817 66.2229 71.285 66.9448 72.2047 67.874C73.1244 68.8042 73.8365 69.9215 74.3408 71.2271C74.8452 72.5325 75.0977 73.9863 75.0977 75.5887C75.0977 77.1914 74.8452 78.6449 74.3408 79.9502C73.8365 81.2562 73.1244 82.3738 72.2047 83.3034C71.285 84.2333 70.1817 84.9551 68.896 85.4693C67.6103 85.9834 66.1862 86.2409 64.6234 86.2409C63.0607 86.2409 61.6366 85.9834 60.3508 85.4693C59.0648 84.9551 57.9625 84.2333 57.0428 83.3034C56.1231 82.3738 55.4107 81.2562 54.9064 79.9502C54.4017 78.6449 54.1495 77.1914 54.1495 75.5887Z" fill="#B34BFF"/>
<path d="M91.4167 65.3522L90.9713 66.5392L82.812 65.8271H81.0318V74.8472H89.6365L89.191 76.0338L81.6251 75.3218H81.0318V85.8255H79.2515V65.3522H91.4167Z" fill="#B34BFF"/>
<path d="M106.549 65.3522L106.104 66.5392L97.9445 65.8271H96.1642V74.8472H104.769L104.323 76.0338L96.7575 75.3218H96.1642V85.8255H94.3839V65.3522H106.549Z" fill="#B34BFF"/>
<path d="M121.978 85.8251H109.516V65.3519H121.681L121.235 66.5389L113.076 65.8268H111.296V74.6981H119.901L119.455 75.8853L111.889 75.173H111.296V85.3502H113.373L121.533 84.6382L121.978 85.8251Z" fill="#B34BFF"/>
<path d="M138 85.8251H125.538V65.3519H137.703L137.258 66.5389L129.099 65.8268H127.318V74.6981H135.923L135.478 75.8853L127.912 75.173H127.318V85.3502H129.395L137.555 84.6382L138 85.8251Z" fill="#B34BFF"/>
<path d="M64.1027 1.78068C63.3125 2.15518 62.5589 2.57548 61.842 3.03665C60.3531 2.41096 58.9464 2.26018 58.0786 2.16892C55.2288 1.86278 52.9544 2.60262 51.7854 3.08244C52.0595 22.5061 52.1553 36.6639 52.0912 38.8925C52.0778 39.3766 52.0228 40.5505 51.2235 41.4228C50.429 42.2814 49.3192 42.4092 49.1822 42.423C48.9948 42.4413 48.2504 42.4959 47.4284 42.1031C46.5699 41.6877 46.145 41.03 45.8984 40.6372C45.8209 40.5093 44.7932 38.8242 45.3777 38.1939C45.5559 38.0065 45.8209 37.961 46.0446 37.961C46.4603 39.025 47.3826 41.1075 48.3374 41.0208C48.9994 40.9616 49.4059 39.879 49.5475 39.4908C50.4928 36.9517 50.3149 24.1958 49.9904 13.646C49.8442 8.90993 49.6663 4.62133 49.5475 1.89483C54.681 -0.644575 60.2344 -0.580469 64.1027 1.78068Z" fill="#B34BFF"/>
<path d="M76.8858 36.0519C76.6025 37.3946 75.7256 38.6005 74.5338 39.5411C72.5013 39.4133 70.6059 38.9612 68.8796 38.1939C66.8063 37.2712 64.9884 35.9561 63.4816 34.2936C61.9653 32.613 60.7685 30.5943 59.9282 28.2787C59.2613 26.4428 58.8505 24.4561 58.7089 22.3416C59.7274 21.8438 60.9834 21.1406 62.3398 20.1813C63.9336 19.0486 64.8334 18.4141 65.6553 17.2494C67.5049 14.6279 67.3725 11.7231 67.3133 10.9378C67.2537 10.2114 67.0392 7.84107 65.3312 5.68565C65.9019 5.27909 66.5002 4.91833 67.1396 4.60303H67.1442C68.9575 7.16533 69.2087 9.95593 69.2495 10.4946C69.2953 11.1203 69.6515 17.2127 64.8425 20.5649C64.468 20.8253 64.089 21.049 63.7145 21.2456C63.0018 21.6109 62.3535 21.8346 61.8603 21.9717C62.1798 22.022 63.2896 22.2778 64.5318 23.1547C67.1213 24.986 66.3543 27.5342 68.4822 30.6764C70.4692 33.6041 73.9264 35.5083 75.027 34.7547C76.0089 34.0836 75.0224 31.3571 75.3649 31.2701C75.7119 31.1834 77.3927 33.6587 76.8858 36.0519Z" fill="#B34BFF"/>
<path d="M91.1946 32.5627C90.4639 33.7958 89.5367 34.9193 88.4223 35.9378C87.3034 36.9609 86.0749 37.8377 84.7277 38.5684C83.3759 39.2991 81.9462 39.8653 80.4253 40.2718C78.9048 40.6738 77.3518 40.8792 75.7763 40.8792C75.4885 40.8792 75.2052 40.8746 74.9269 40.8609C74.1779 40.8338 73.4469 40.7651 72.7345 40.6509C71.191 40.4135 69.7339 39.9886 68.3547 39.3766C66.1031 38.3764 64.1576 36.97 62.5226 35.1613C60.8875 33.3529 59.6178 31.2063 58.7138 28.7219C58.7092 28.7081 58.7046 28.6944 58.7001 28.6806C57.9007 26.4748 57.4578 24.0908 57.3754 21.5331C57.3617 21.2273 57.3574 20.9165 57.3574 20.6061C57.3574 17.8751 57.7499 15.3631 58.5401 13.0749C59.3258 10.7825 60.4264 8.80955 61.8285 7.1516C62.3263 6.56712 62.8559 6.0281 63.4224 5.53945C63.7511 5.25163 64.0938 4.97754 64.45 4.72635C65.0391 4.29264 65.6556 3.90899 66.3088 3.5757C66.4959 3.47038 66.6879 3.37455 66.8841 3.28329C67.0987 3.18288 67.3136 3.08672 67.5281 3.00005C69.314 2.26478 71.2319 1.89944 73.2918 1.89944C75.3697 1.89944 77.2697 2.23731 78.9823 2.90879C80.6948 3.58486 82.1654 4.52552 83.3988 5.74028C84.6318 6.95078 85.5817 8.40299 86.2577 10.0972C86.9289 11.7918 87.2671 13.6781 87.2671 15.756C88.0753 15.756 88.7602 15.4315 89.3175 14.7741C89.8749 14.1209 90.1532 13.2944 90.1532 12.2942C90.1532 10.7138 89.7287 9.24325 88.8838 7.87313C88.0387 6.50759 86.8743 5.31573 85.39 4.29722C83.91 3.27413 82.1837 2.46593 80.2199 1.87196C78.2608 1.27375 76.16 0.976762 73.9267 0.976762C71.3098 0.976762 68.8937 1.35584 66.6833 2.11858C66.3588 2.22815 66.0439 2.34688 65.7286 2.47476C65.5915 2.52971 65.4548 2.58924 65.3223 2.64386C64.5688 2.97257 63.8561 3.33366 63.1758 3.73531C62.7555 3.98192 62.3492 4.24227 61.9518 4.52094C61.0337 5.16037 60.1843 5.88648 59.4033 6.69043C57.6541 8.5034 56.2977 10.6775 55.3341 13.2165C54.3706 15.756 53.8908 18.5874 53.8908 21.7068C53.8908 24.8261 54.3794 27.653 55.3616 30.1924C56.2202 32.4119 57.3846 34.3531 58.8597 36.0153C59.0746 36.2527 59.2937 36.4902 59.522 36.7188C60.7234 37.9336 62.0797 38.9613 63.6003 39.8152C63.6049 39.8152 63.6049 39.8198 63.6095 39.8198C64.3539 40.2352 65.1349 40.6051 65.9572 40.9342C66.5234 41.1579 67.1033 41.3587 67.7018 41.537C69.0674 41.9389 70.5058 42.2085 72.0176 42.3363C72.7528 42.4047 73.5018 42.4367 74.2737 42.4367C78.2012 42.4367 81.6859 41.6191 84.7277 39.9794C87.7646 38.3447 90.1532 36.0061 91.8887 32.9647L91.1946 32.5627Z" fill="#B34BFF"/>
<path d="M69.2642 23.5586C68.9852 23.2087 70.198 21.1752 71.1276 19.9127C73.598 16.5566 76.4641 15.3857 77.1068 15.1388C77.15 15.1221 77.307 15.0619 77.53 14.9863C78.02 14.8202 81.5347 13.6813 84.8451 15.1823C85.0433 15.2722 85.6752 15.5685 86.3418 16.2031C86.9639 16.7954 87.5349 17.3393 87.4427 18.0151C87.3148 18.9475 85.9944 19.6151 85.4495 19.8905C84.9622 20.1371 83.6254 20.7373 81.4317 20.4835C79.4317 20.2519 79.3407 19.6135 77.7417 19.6239C76.4448 19.6324 75.4256 20.0589 74.3999 20.4998C71.2293 21.8621 69.5661 23.9374 69.2642 23.5586Z" fill="#B34BFF"/>
<path d="M87.6902 19.6913C87.5188 19.4672 86.7511 20.368 85.1717 21.0159C83.9249 21.5271 82.9299 21.57 82.1476 21.5958C80.1903 21.6609 79.1882 21.1261 78.207 20.9453C74.8162 20.3202 70.1315 23.6377 70.0615 25.4376C69.9866 27.368 75.1684 28.9063 79.7161 27.4338C80.6097 27.1443 82.9083 26.2756 85.0781 23.9491C86.6887 22.2228 87.9335 20.0095 87.6902 19.6913Z" fill="#B34BFF"/>
<path d="M5.99332 78.6743V78.7044C7.53645 78.8225 8.78228 79.5054 9.73145 80.7516L11.8686 83.5703C12.4023 84.2823 12.8962 84.7867 13.3515 85.0837C13.8061 85.3803 14.3206 85.5288 14.8947 85.5288V85.8251H13.797C12.1547 85.8251 10.8494 85.153 9.88027 83.8077L7.74415 80.8108C7.46679 80.4353 7.20971 80.1187 6.97258 79.8613C6.73479 79.6045 6.49276 79.4017 6.24516 79.2532C5.9979 79.1044 5.731 78.9965 5.44416 78.9268C5.15731 78.8575 4.82599 78.8133 4.45018 78.793V78.4964C5.43925 78.4768 6.32432 78.3139 7.10602 78.0067C7.88708 77.7006 8.55496 77.2751 9.10903 76.7312C9.66244 76.1872 10.0876 75.5292 10.3846 74.7576C10.6813 73.9863 10.8298 73.1258 10.8298 72.1766C10.8298 71.2075 10.6813 70.3323 10.3846 69.5506C10.0876 68.7692 9.66244 68.1019 9.10903 67.5479C8.55496 66.9945 7.88217 66.5686 7.09098 66.272C6.29979 65.9753 5.4193 65.8271 4.45018 65.8271H1.78027V85.8251H0V65.3522H4.45018C5.71596 65.3522 6.8581 65.5109 7.87727 65.8271C8.89578 66.1434 9.76612 66.5984 10.4883 67.1917C11.2102 67.785 11.7642 68.5026 12.1498 69.3429C12.5358 70.1841 12.7288 71.1284 12.7288 72.1766C12.7288 74.0357 12.14 75.5292 10.9632 76.6569C9.78607 77.7843 8.12977 78.4571 5.99332 78.6743Z" stroke="#B34BFF" stroke-width="2" mask="url(#path-1-inside-1_511_2249)"/>
<path d="M30.0271 85.8251H17.5652V65.3519H29.7304L29.285 66.5389L21.1258 65.8268H19.3455V74.6981H27.9502L27.5047 75.8853L19.9388 75.173H19.3455V85.3502H21.4224L29.5823 84.6382L30.0271 85.8251Z" stroke="#B34BFF" stroke-width="2" mask="url(#path-1-inside-1_511_2249)"/>
<path d="M43.3492 85.4398C44.16 85.4398 44.9561 85.3358 45.7378 85.1281C46.5188 84.9201 47.2554 84.6287 47.9485 84.2529C48.6403 83.8771 49.2735 83.4274 49.8468 82.9027C50.4205 82.3788 50.8954 81.8002 51.2716 81.1666L51.6278 81.3746C50.7375 82.9377 49.5106 84.1394 47.9485 84.9797C46.3851 85.8209 44.5956 86.2409 42.5776 86.2409C41.0148 86.2409 39.5908 85.9834 38.305 85.4693C37.019 84.9551 35.9167 84.2333 34.997 83.3034C34.0773 82.3738 33.3649 81.2562 32.8605 79.9502C32.3559 78.6449 32.104 77.1914 32.104 75.5887C32.104 73.9863 32.351 72.5325 32.8455 71.2271C33.34 69.9215 34.0367 68.8042 34.9375 67.874C35.8372 66.9448 36.9202 66.2229 38.1863 65.7084C39.4524 65.1939 40.8569 64.9368 42.4 64.9368C43.5467 64.9368 44.6251 65.0906 45.6338 65.397C46.6425 65.7038 47.5279 66.1189 48.2896 66.6429C49.0507 67.1672 49.649 67.7808 50.0846 68.4827C50.5193 69.1849 50.7375 69.9414 50.7375 70.7522C50.7375 71.267 50.5935 71.6919 50.307 72.0282C50.0202 72.3647 49.6692 72.5325 49.2538 72.5325C49.2538 71.4646 49.0805 70.4955 48.7348 69.6248C48.3884 68.7545 47.8988 68.0077 47.2659 67.385C46.6327 66.7616 45.8758 66.2769 44.996 65.9308C44.1158 65.5851 43.1415 65.4118 42.0732 65.4118C40.8863 65.4118 39.7886 65.6489 38.7799 66.1238C37.7712 66.5987 36.9055 67.261 36.1836 68.1118C35.4611 68.9622 34.8979 69.9764 34.492 71.1532C34.0864 72.3297 33.884 73.621 33.884 75.0251C33.884 76.5287 34.1165 77.9181 34.5816 79.194C35.0461 80.4699 35.6989 81.5725 36.5395 82.5021C37.3804 83.4323 38.3793 84.1541 39.5361 84.6683C40.6936 85.1831 41.9643 85.4398 43.3492 85.4398Z" stroke="#B34BFF" stroke-width="2" mask="url(#path-1-inside-1_511_2249)"/>
<path d="M64.9201 85.7659C66.1862 85.7659 67.3381 85.5435 68.3769 85.0984C69.4157 84.6536 70.3008 84.0256 71.0324 83.2141C71.7641 82.4033 72.3329 81.424 72.7385 80.277C73.1437 79.1296 73.3468 77.8537 73.3468 76.4492C73.3468 74.9061 73.1143 73.4627 72.6495 72.1171C72.1844 70.7725 71.5466 69.6003 70.7358 68.6014C69.9243 67.6025 68.9702 66.8211 67.8726 66.2572C66.7746 65.6934 65.5925 65.4118 64.3268 65.4118C63.0607 65.4118 61.9087 65.6342 60.8699 66.079C59.8318 66.5241 58.9464 67.1524 58.2144 67.9633C57.4824 68.7747 56.9136 69.754 56.5084 70.9007C56.1028 72.0478 55.9 73.3237 55.9 74.7285C55.9 76.2713 56.1322 77.7153 56.5973 79.0603C57.0618 80.4055 57.6999 81.5778 58.5111 82.5763C59.3219 83.5755 60.2766 84.3566 61.3749 84.9201C62.4723 85.484 63.654 85.7659 64.9201 85.7659ZM54.1495 75.5887C54.1495 73.9863 54.4017 72.5325 54.9064 71.2271C55.4107 69.9215 56.1231 68.8042 57.0428 67.874C57.9625 66.9448 59.0648 66.2229 60.3508 65.7084C61.6366 65.1939 63.0607 64.9368 64.6234 64.9368C66.1862 64.9368 67.6103 65.1939 68.896 65.7084C70.1817 66.2229 71.285 66.9448 72.2047 67.874C73.1244 68.8042 73.8365 69.9215 74.3408 71.2271C74.8452 72.5325 75.0977 73.9863 75.0977 75.5887C75.0977 77.1914 74.8452 78.6449 74.3408 79.9502C73.8365 81.2562 73.1244 82.3738 72.2047 83.3034C71.285 84.2333 70.1817 84.9551 68.896 85.4693C67.6103 85.9834 66.1862 86.2409 64.6234 86.2409C63.0607 86.2409 61.6366 85.9834 60.3508 85.4693C59.0648 84.9551 57.9625 84.2333 57.0428 83.3034C56.1231 82.3738 55.4107 81.2562 54.9064 79.9502C54.4017 78.6449 54.1495 77.1914 54.1495 75.5887Z" stroke="#B34BFF" stroke-width="2" mask="url(#path-1-inside-1_511_2249)"/>
<path d="M91.4167 65.3522L90.9713 66.5392L82.812 65.8271H81.0318V74.8472H89.6365L89.191 76.0338L81.6251 75.3218H81.0318V85.8255H79.2515V65.3522H91.4167Z" stroke="#B34BFF" stroke-width="2" mask="url(#path-1-inside-1_511_2249)"/>
<path d="M106.549 65.3522L106.104 66.5392L97.9445 65.8271H96.1642V74.8472H104.769L104.323 76.0338L96.7575 75.3218H96.1642V85.8255H94.3839V65.3522H106.549Z" stroke="#B34BFF" stroke-width="2" mask="url(#path-1-inside-1_511_2249)"/>
<path d="M121.978 85.8251H109.516V65.3519H121.681L121.235 66.5389L113.076 65.8268H111.296V74.6981H119.901L119.455 75.8853L111.889 75.173H111.296V85.3502H113.373L121.533 84.6382L121.978 85.8251Z" stroke="#B34BFF" stroke-width="2" mask="url(#path-1-inside-1_511_2249)"/>
<path d="M138 85.8251H125.538V65.3519H137.703L137.258 66.5389L129.099 65.8268H127.318V74.6981H135.923L135.478 75.8853L127.912 75.173H127.318V85.3502H129.395L137.555 84.6382L138 85.8251Z" stroke="#B34BFF" stroke-width="2" mask="url(#path-1-inside-1_511_2249)"/>
<path d="M64.1027 1.78068C63.3125 2.15518 62.5589 2.57548 61.842 3.03665C60.3531 2.41096 58.9464 2.26018 58.0786 2.16892C55.2288 1.86278 52.9544 2.60262 51.7854 3.08244C52.0595 22.5061 52.1553 36.6639 52.0912 38.8925C52.0778 39.3766 52.0228 40.5505 51.2235 41.4228C50.429 42.2814 49.3192 42.4092 49.1822 42.423C48.9948 42.4413 48.2504 42.4959 47.4284 42.1031C46.5699 41.6877 46.145 41.03 45.8984 40.6372C45.8209 40.5093 44.7932 38.8242 45.3777 38.1939C45.5559 38.0065 45.8209 37.961 46.0446 37.961C46.4603 39.025 47.3826 41.1075 48.3374 41.0208C48.9994 40.9616 49.4059 39.879 49.5475 39.4908C50.4928 36.9517 50.3149 24.1958 49.9904 13.646C49.8442 8.90993 49.6663 4.62133 49.5475 1.89483C54.681 -0.644575 60.2344 -0.580469 64.1027 1.78068Z" stroke="#B34BFF" stroke-width="2" mask="url(#path-1-inside-1_511_2249)"/>
<path d="M76.8858 36.0519C76.6025 37.3946 75.7256 38.6005 74.5338 39.5411C72.5013 39.4133 70.6059 38.9612 68.8796 38.1939C66.8063 37.2712 64.9884 35.9561 63.4816 34.2936C61.9653 32.613 60.7685 30.5943 59.9282 28.2787C59.2613 26.4428 58.8505 24.4561 58.7089 22.3416C59.7274 21.8438 60.9834 21.1406 62.3398 20.1813C63.9336 19.0486 64.8334 18.4141 65.6553 17.2494C67.5049 14.6279 67.3725 11.7231 67.3133 10.9378C67.2537 10.2114 67.0392 7.84107 65.3312 5.68565C65.9019 5.27909 66.5002 4.91833 67.1396 4.60303H67.1442C68.9575 7.16533 69.2087 9.95593 69.2495 10.4946C69.2953 11.1203 69.6515 17.2127 64.8425 20.5649C64.468 20.8253 64.089 21.049 63.7145 21.2456C63.0018 21.6109 62.3535 21.8346 61.8603 21.9717C62.1798 22.022 63.2896 22.2778 64.5318 23.1547C67.1213 24.986 66.3543 27.5342 68.4822 30.6764C70.4692 33.6041 73.9264 35.5083 75.027 34.7547C76.0089 34.0836 75.0224 31.3571 75.3649 31.2701C75.7119 31.1834 77.3927 33.6587 76.8858 36.0519Z" stroke="#B34BFF" stroke-width="2" mask="url(#path-1-inside-1_511_2249)"/>
<path d="M91.1946 32.5627C90.4639 33.7958 89.5367 34.9193 88.4223 35.9378C87.3034 36.9609 86.0749 37.8377 84.7277 38.5684C83.3759 39.2991 81.9462 39.8653 80.4253 40.2718C78.9048 40.6738 77.3518 40.8792 75.7763 40.8792C75.4885 40.8792 75.2052 40.8746 74.9269 40.8609C74.1779 40.8338 73.4469 40.7651 72.7345 40.6509C71.191 40.4135 69.7339 39.9886 68.3547 39.3766C66.1031 38.3764 64.1576 36.97 62.5226 35.1613C60.8875 33.3529 59.6178 31.2063 58.7138 28.7219C58.7092 28.7081 58.7046 28.6944 58.7001 28.6806C57.9007 26.4748 57.4578 24.0908 57.3754 21.5331C57.3617 21.2273 57.3574 20.9165 57.3574 20.6061C57.3574 17.8751 57.7499 15.3631 58.5401 13.0749C59.3258 10.7825 60.4264 8.80955 61.8285 7.1516C62.3263 6.56712 62.8559 6.0281 63.4224 5.53945C63.7511 5.25163 64.0938 4.97754 64.45 4.72635C65.0391 4.29264 65.6556 3.90899 66.3088 3.5757C66.4959 3.47038 66.6879 3.37455 66.8841 3.28329C67.0987 3.18288 67.3136 3.08672 67.5281 3.00005C69.314 2.26478 71.2319 1.89944 73.2918 1.89944C75.3697 1.89944 77.2697 2.23731 78.9823 2.90879C80.6948 3.58486 82.1654 4.52552 83.3988 5.74028C84.6318 6.95078 85.5817 8.40299 86.2577 10.0972C86.9289 11.7918 87.2671 13.6781 87.2671 15.756C88.0753 15.756 88.7602 15.4315 89.3175 14.7741C89.8749 14.1209 90.1532 13.2944 90.1532 12.2942C90.1532 10.7138 89.7287 9.24325 88.8838 7.87313C88.0387 6.50759 86.8743 5.31573 85.39 4.29722C83.91 3.27413 82.1837 2.46593 80.2199 1.87196C78.2608 1.27375 76.16 0.976762 73.9267 0.976762C71.3098 0.976762 68.8937 1.35584 66.6833 2.11858C66.3588 2.22815 66.0439 2.34688 65.7286 2.47476C65.5915 2.52971 65.4548 2.58924 65.3223 2.64386C64.5688 2.97257 63.8561 3.33366 63.1758 3.73531C62.7555 3.98192 62.3492 4.24227 61.9518 4.52094C61.0337 5.16037 60.1843 5.88648 59.4033 6.69043C57.6541 8.5034 56.2977 10.6775 55.3341 13.2165C54.3706 15.756 53.8908 18.5874 53.8908 21.7068C53.8908 24.8261 54.3794 27.653 55.3616 30.1924C56.2202 32.4119 57.3846 34.3531 58.8597 36.0153C59.0746 36.2527 59.2937 36.4902 59.522 36.7188C60.7234 37.9336 62.0797 38.9613 63.6003 39.8152C63.6049 39.8152 63.6049 39.8198 63.6095 39.8198C64.3539 40.2352 65.1349 40.6051 65.9572 40.9342C66.5234 41.1579 67.1033 41.3587 67.7018 41.537C69.0674 41.9389 70.5058 42.2085 72.0176 42.3363C72.7528 42.4047 73.5018 42.4367 74.2737 42.4367C78.2012 42.4367 81.6859 41.6191 84.7277 39.9794C87.7646 38.3447 90.1532 36.0061 91.8887 32.9647L91.1946 32.5627Z" stroke="#B34BFF" stroke-width="2" mask="url(#path-1-inside-1_511_2249)"/>
<path d="M69.2642 23.5586C68.9852 23.2087 70.198 21.1752 71.1276 19.9127C73.598 16.5566 76.4641 15.3857 77.1068 15.1388C77.15 15.1221 77.307 15.0619 77.53 14.9863C78.02 14.8202 81.5347 13.6813 84.8451 15.1823C85.0433 15.2722 85.6752 15.5685 86.3418 16.2031C86.9639 16.7954 87.5349 17.3393 87.4427 18.0151C87.3148 18.9475 85.9944 19.6151 85.4495 19.8905C84.9622 20.1371 83.6254 20.7373 81.4317 20.4835C79.4317 20.2519 79.3407 19.6135 77.7417 19.6239C76.4448 19.6324 75.4256 20.0589 74.3999 20.4998C71.2293 21.8621 69.5661 23.9374 69.2642 23.5586Z" stroke="#B34BFF" stroke-width="2" mask="url(#path-1-inside-1_511_2249)"/>
<path d="M87.6902 19.6913C87.5188 19.4672 86.7511 20.368 85.1717 21.0159C83.9249 21.5271 82.9299 21.57 82.1476 21.5958C80.1903 21.6609 79.1882 21.1261 78.207 20.9453C74.8162 20.3202 70.1315 23.6377 70.0615 25.4376C69.9866 27.368 75.1684 28.9063 79.7161 27.4338C80.6097 27.1443 82.9083 26.2756 85.0781 23.9491C86.6887 22.2228 87.9335 20.0095 87.6902 19.6913Z" stroke="#B34BFF" stroke-width="2" mask="url(#path-1-inside-1_511_2249)"/>
</svg>
