<svg width="596" height="541" viewBox="0 0 596 541" fill="none" xmlns="http://www.w3.org/2000/svg">
<path d="M241.38 22.6855C231.314 27.4563 221.714 32.8105 212.58 38.6855C193.614 30.7146 175.693 28.7938 164.639 27.6313C128.334 23.7313 99.3593 33.1563 84.4676 39.2688C87.9593 286.711 89.1801 467.069 88.3635 495.461C88.1926 501.628 87.4926 516.582 77.3093 527.694C67.1884 538.632 53.0509 540.261 51.3051 540.436C48.9176 540.669 39.4342 541.365 28.9634 536.361C18.0259 531.069 12.6134 522.69 9.47171 517.686C8.48421 516.057 -4.60746 494.59 2.83838 486.561C5.10921 484.173 8.48422 483.594 11.3342 483.594C16.6301 497.148 28.3801 523.677 40.5426 522.573C48.9759 521.819 54.1551 508.027 55.9593 503.082C68.0009 470.736 65.7343 308.236 61.6009 173.84C59.7384 113.506 57.4718 58.873 55.9593 24.1396C121.355 -8.2104 192.101 -7.39373 241.38 22.6855Z" fill="#FEFAE0"/>
<path d="M404.226 459.273C400.618 476.378 389.447 491.74 374.264 503.723C348.372 502.094 324.226 496.336 302.235 486.561C275.822 474.807 252.664 458.053 233.468 436.873C214.151 415.465 198.905 389.748 188.201 360.248C179.705 336.861 174.472 311.552 172.668 284.615C185.643 278.273 201.643 269.315 218.922 257.094C239.226 242.665 250.689 234.582 261.16 219.744C284.722 186.348 283.035 149.344 282.281 139.34C281.522 130.086 278.789 99.8897 257.031 72.4314C264.301 67.2522 271.922 62.6564 280.068 58.6397H280.126C303.226 91.2814 306.426 126.831 306.947 133.694C307.531 141.665 312.068 219.277 250.806 261.982C246.035 265.298 241.206 268.148 236.435 270.652C227.356 275.307 219.097 278.157 212.814 279.902C216.885 280.544 231.022 283.802 246.847 294.973C279.835 318.302 270.064 350.765 297.172 390.794C322.485 428.09 366.526 452.348 380.547 442.748C393.056 434.198 380.489 399.465 384.851 398.357C389.272 397.252 410.685 428.786 404.226 459.273Z" fill="#FEFAE0"/>
<path d="M586.51 414.823C577.201 430.532 565.389 444.844 551.193 457.819C536.939 470.853 521.289 482.023 504.126 491.332C486.906 500.64 468.693 507.853 449.318 513.032C429.947 518.153 410.164 520.769 390.093 520.769C386.426 520.769 382.818 520.711 379.272 520.536C369.73 520.19 360.418 519.315 351.343 517.861C331.68 514.836 313.118 509.423 295.547 501.628C266.864 488.886 242.08 470.969 221.251 447.928C200.422 424.89 184.247 397.544 172.73 365.894C172.672 365.719 172.614 365.544 172.555 365.369C162.372 337.269 156.73 306.898 155.68 274.315C155.505 270.419 155.451 266.461 155.451 262.507C155.451 227.715 160.451 195.715 170.518 166.565C180.526 137.361 194.547 112.227 212.41 91.1064C218.751 83.6606 225.497 76.7939 232.714 70.5689C236.901 66.9022 241.268 63.4105 245.805 60.2105C253.31 54.6855 261.164 49.798 269.485 45.5522C271.868 44.2105 274.314 42.9897 276.814 41.8272C279.547 40.548 282.285 39.323 285.018 38.2189C307.768 28.8522 332.201 24.198 358.443 24.198C384.914 24.198 409.118 28.5022 430.935 37.0564C452.751 45.6689 471.485 57.6522 487.197 73.1272C502.906 88.5481 515.006 107.048 523.618 128.631C532.168 150.219 536.476 174.248 536.476 200.719C546.772 200.719 555.497 196.586 562.597 188.211C569.697 179.89 573.243 169.361 573.243 156.619C573.243 136.486 567.835 117.752 557.072 100.298C546.306 82.9022 531.472 67.7189 512.564 54.7439C493.71 41.7105 471.718 31.4147 446.701 23.848C421.743 16.2272 394.98 12.4438 366.53 12.4438C333.193 12.4438 302.414 17.273 274.255 26.9897C270.122 28.3855 266.11 29.898 262.093 31.5272C260.347 32.2272 258.605 32.9855 256.918 33.6814C247.318 37.8689 238.239 42.4689 229.572 47.5855C224.218 50.7272 219.043 54.0439 213.98 57.5939C202.284 65.7397 191.464 74.9897 181.514 85.2314C159.23 108.327 141.951 136.023 129.676 168.369C117.401 200.719 111.289 236.79 111.289 276.527C111.289 316.265 117.514 352.277 130.026 384.627C140.964 412.902 155.797 437.632 174.589 458.807C177.326 461.832 180.118 464.857 183.026 467.769C198.33 483.244 215.61 496.336 234.98 507.215C235.039 507.215 235.039 507.273 235.097 507.273C244.58 512.565 254.53 517.278 265.005 521.469C272.218 524.319 279.605 526.878 287.23 529.148C304.626 534.269 322.951 537.703 342.21 539.332C351.576 540.203 361.118 540.611 370.951 540.611C420.985 540.611 465.376 530.194 504.126 509.307C542.814 488.482 573.243 458.69 595.351 419.944L586.51 414.823Z" fill="#FEFAE0"/>
<path d="M307.134 300.119C303.58 295.661 319.03 269.757 330.872 253.673C362.343 210.919 398.855 196.002 407.043 192.857C407.593 192.644 409.593 191.877 412.435 190.915C418.676 188.798 463.451 174.29 505.622 193.411C508.147 194.557 516.197 198.332 524.689 206.415C532.614 213.961 539.889 220.89 538.714 229.498C537.085 241.377 520.264 249.882 513.322 253.39C507.114 256.532 490.085 264.177 462.139 260.944C436.66 257.994 435.501 249.861 415.13 249.994C398.61 250.102 385.626 255.536 372.56 261.152C332.168 278.507 310.98 304.944 307.134 300.119Z" fill="#FEFAE0"/>
<path d="M541.868 250.852C539.685 247.998 529.906 259.473 509.785 267.727C493.901 274.24 481.226 274.786 471.26 275.115C446.326 275.944 433.56 269.131 421.06 266.827C377.864 258.865 318.185 301.127 317.293 324.056C316.339 348.648 382.351 368.244 440.285 349.486C451.668 345.798 480.951 334.731 508.593 305.094C529.11 283.102 544.968 254.906 541.868 250.852Z" fill="#FEFAE0"/>
</svg>
